<?xml version="1.0" standalone="no"?><!DOCTYPE svg PUBLIC "-//W3C//DTD SVG 1.1//EN" "http://www.w3.org/Graphics/SVG/1.1/DTD/svg11.dtd"><svg t="1586350171220" class="icon" viewBox="0 0 1629 1024" version="1.1" xmlns="http://www.w3.org/2000/svg" p-id="8532" xmlns:xlink="http://www.w3.org/1999/xlink" width="318.1640625" height="200"><defs><style type="text/css"></style></defs><path d="M941.056 0c171.799273 0 287.883636 78.871273 337.803636 231.563636a46.545455 46.545455 0 1 1-88.482909 28.928C1153.326545 147.2 1073.687273 93.090909 941.056 93.090909c-113.338182 0-192.930909 70.935273-242.036364 223.790546 53.666909 33.047273 98.210909 83.176727 132.910546 149.643636 161.093818 11.496727 252.346182 114.432 252.346182 252.346182 0 144.942545-65.419636 255.697455-214.341819 302.941091a46.545455 46.545455 0 0 1-14.08 2.187636H211.246545a46.382545 46.382545 0 0 1-12.334545-1.396364C69.352727 993.024 0 906.589091 0 774.283636c0-127.767273 77.777455-208.058182 219.624727-235.264 57.274182-175.872 158.836364-269.544727 302.359273-269.544727 32.116364 0 62.510545 3.700364 91.042909 11.031273C674.443636 97.047273 784.826182 0 941.056 0z m-137.890909 558.545455h-1.861818a46.545455 46.545455 0 0 1-45.288728-35.770182c-52.247273-108.823273-128.442182-160.209455-234.030545-160.209455-103.540364 0-176.477091 72.378182-221.533091 230.539637l-8.378182 29.370181-30.254545 4.002909C143.755636 642.117818 93.090909 689.105455 93.090909 774.283636 93.090909 861.626182 131.048727 910.382545 215.598545 930.909091h632.785455c101.469091-34.629818 142.801455-106.821818 142.801455-212.037818 0-95.348364-61.416727-159.697455-188.020364-160.325818z m721.966545-24.389819c0-139.822545-76.846545-224.698182-294.167272-241.733818a46.545455 46.545455 0 1 1 7.307636-92.788363c266.146909 20.852364 379.950545 146.525091 379.950545 334.522181 0 170.170182-59.624727 300.916364-233.495272 356.305455-4.864 1.536-26.321455 0.651636-31.418182 0.535273-12.218182-0.232727-23.784727-0.418909-35.444364-0.535273h-1.536c-34.629818-0.349091-21.690182-0.395636-164.421818 0.162909-44.683636 0.162909-85.666909 0.279273-132.794182 0.349091a46.545455 46.545455 0 0 1-0.116363-93.090909c47.034182-0.069818 87.924364-0.186182 132.561454-0.349091 143.546182-0.558545 130.397091-0.535273 165.701818-0.162909h1.559273c9.402182 0.116364 18.734545 0.232727 28.392727 0.418909 126.068364-42.821818 177.92-133.282909 177.92-263.633455zM537.832727 749.637818c-5.073455 21.527273-14.778182 38.074182-29.090909 49.640727-14.754909 11.450182-32.209455 17.175273-52.363636 17.175273-18.245818-0.418909-33.442909-4.887273-45.661091-13.358545-12.404364-8.168727-21.410909-17.617455-27.042909-28.322909a259.956364 259.956364 0 0 1-4.608-10.007273 65.349818 65.349818 0 0 1-3.188364-12.427636c-1.582545-9.309091-2.373818-27.252364-2.373818-53.76 0-26.949818 0.791273-44.986182 2.373818-54.109091 1.698909-9.122909 4.305455-16.477091 7.796364-22.109091 5.632-10.705455 14.661818-20.247273 27.042909-28.625455 12.218182-8.494545 27.415273-12.846545 45.661091-13.032727 22.388364 0.186182 40.634182 6.818909 54.737454 19.874909a87.505455 87.505455 0 0 1 26.717091 48.826182h-37.236363a51.037091 51.037091 0 0 0-15.592728-23.854546c-7.819636-6.260364-17.384727-9.495273-28.625454-9.704727-8.261818 0.209455-15.36 1.861818-21.317818 4.933818-6.050909 3.188364-10.938182 7.144727-14.638546 11.938909a38.4 38.4 0 0 0-9.076363 19.246546c-1.675636 8.261818-2.536727 23.808-2.536728 46.615273 0 22.807273 0.861091 38.237091 2.56 46.289454 1.489455 8.052364 4.491636 14.568727 9.076364 19.549091 3.700364 4.794182 8.587636 8.657455 14.615273 11.636364 5.957818 3.490909 13.032727 5.236364 21.317818 5.236363 19.735273 0 34.466909-10.542545 44.218182-31.650909h37.236363z m16.872728-51.060363c0-26.949818 0.791273-44.986182 2.373818-54.109091 1.698909-9.122909 4.305455-16.477091 7.796363-22.109091 5.632-10.705455 14.661818-20.247273 27.066182-28.625455 12.194909-8.494545 27.415273-12.846545 45.637818-13.032727 18.455273 0.186182 33.838545 4.538182 46.149819 13.032727 12.194909 8.378182 20.992 17.92 26.414545 28.625455 3.909818 5.632 6.632727 12.986182 8.098909 22.109091 1.396364 9.122909 2.094545 27.159273 2.094546 54.109091 0 26.507636-0.698182 44.450909-2.094546 53.76-1.466182 9.332364-4.189091 16.802909-8.098909 22.434909-5.422545 10.705455-14.219636 20.154182-26.414545 28.322909-12.311273 8.471273-27.694545 12.939636-46.149819 13.358545-18.222545-0.418909-33.442909-4.887273-45.637818-13.358545-12.427636-8.168727-21.434182-17.617455-27.066182-28.322909a259.956364 259.956364 0 0 1-4.608-10.007273 65.349818 65.349818 0 0 1-3.188363-12.427636c-1.582545-9.309091-2.373818-27.252364-2.373818-53.76z m35.328 0c0 22.807273 0.837818 38.237091 2.536727 46.289454 1.489455 8.052364 4.514909 14.568727 9.076363 19.549091 3.723636 4.794182 8.587636 8.657455 14.615273 11.636364 5.957818 3.490909 13.056 5.236364 21.317818 5.236363 8.378182 0 15.662545-1.745455 21.806546-5.236363 5.818182-2.978909 10.496-6.842182 14.010182-11.636364 4.561455-4.980364 7.68-11.496727 9.378909-19.549091 1.582545-8.052364 2.373818-23.505455 2.373818-46.312727s-0.791273-38.330182-2.373818-46.592a40.564364 40.564364 0 0 0-9.378909-19.246546 41.890909 41.890909 0 0 0-14.010182-11.938909 51.153455 51.153455 0 0 0-21.806546-4.933818c-8.261818 0.209455-15.36 1.861818-21.317818 4.933818-6.050909 3.188364-10.914909 7.144727-14.615273 11.938909a38.4 38.4 0 0 0-9.076363 19.246546c-1.698909 8.261818-2.56 23.808-2.56 46.615273z" p-id="8533" fill="#ffffff"></path></svg>