<?xml version="1.0" standalone="no"?><!DOCTYPE svg PUBLIC "-//W3C//DTD SVG 1.1//EN" "http://www.w3.org/Graphics/SVG/1.1/DTD/svg11.dtd"><svg t="1583736072572" class="icon" viewBox="0 0 1024 1024" version="1.1" xmlns="http://www.w3.org/2000/svg" p-id="5618" xmlns:xlink="http://www.w3.org/1999/xlink" width="200" height="200"><defs><style type="text/css"></style></defs><path d="M522.3936 28.7232c-1.3824-11.008-19.456-11.008-20.7872 0-45.2096 363.8784-276.3776 438.8864-276.3776 691.8144 0 156.3136 131.2768 282.9824 286.7712 282.9824 155.4432 0 286.72-126.72 286.72-282.9824 0-252.928-231.1168-327.936-276.3264-691.8144zM478.72 431.0016c-3.0208 11.2128-6.2976 22.7328-9.6768 34.7136-20.5312 72.9088-43.8272 155.5968-43.8272 251.1872 0 51.8144-30.6176 70.1952-59.1872 70.1952a59.4432 59.4432 0 0 1-59.1872-59.6992c0-112.9984 54.3744-186.8288 102.4-251.904 15.104-20.3776 29.2864-39.68 40.8064-58.88 5.2736-8.8064 19.456-8.3968 25.9072 0.3072 3.0208 4.096 4.0448 9.3184 2.7648 14.08z" fill="#ffffff" p-id="5619"></path></svg>