<?xml version="1.0" standalone="no"?><!DOCTYPE svg PUBLIC "-//W3C//DTD SVG 1.1//EN" "http://www.w3.org/Graphics/SVG/1.1/DTD/svg11.dtd"><svg t="1583735986670" class="icon" viewBox="0 0 1024 1024" version="1.1" xmlns="http://www.w3.org/2000/svg" p-id="2267" xmlns:xlink="http://www.w3.org/1999/xlink" width="200" height="200"><defs><style type="text/css"></style></defs><path d="M605.866667 861.866667c-2.844444-8.533333-8.533333-14.222222-25.6-8.533334 11.377778-51.2 17.066667-79.644444 42.666666-102.4 36.977778-31.288889 5.688889-65.422222-22.755555-62.577777-22.755556 2.844444-8.533333-28.444444-28.444445-28.444445-19.911111-2.844444-45.511111-39.822222-73.955555-54.044444-14.222222-5.688889-28.444444-25.6-51.2-25.6-19.911111 0-51.2 17.066667-51.2 2.844444 0-45.511111-5.688889-76.8-5.688889-88.177778 0-11.377778-5.688889-2.844444 19.911111-2.844444 14.222222 0 8.533333-31.288889 22.755556-31.288889s48.355556 14.222222 56.888888 8.533333c8.533333-5.688889 59.733333 136.533333 59.733334 22.755556 0-14.222222-5.688889-36.977778 0-48.355556 28.444444-51.2 54.044444-91.022222 51.2-96.711111 0-2.844444-28.444444-5.688889-48.355556 0-8.533333 2.844444 2.844444 14.222222-8.533333 17.066667-39.822222 8.533333-73.955556-11.377778-62.577778-28.444445 11.377778-19.911111 56.888889-8.533333 59.733333-45.511111 2.844444-22.755556 2.844444-45.511111 5.688889-65.422222 56.888889 2.844444 51.2-73.955556-25.6-82.488889 159.288889 2.844444 292.977778 105.244444 341.333334 244.622222-2.844444-2.844444-5.688889-2.844444-8.533334-2.844444-22.755556-59.733333-79.644444-17.066667-62.577777 36.977778-105.244444 79.644444-76.8 136.533333-42.666667 167.822222 17.066667 17.066667 34.133333 42.666667 45.511111 59.733333-11.377778 34.133333 45.511111 19.911111 73.955556-39.822222-36.977778 125.155556-136.533333 221.866667-261.688889 253.155556m-455.111111-352.711111c0-25.6 2.844444-51.2 8.533333-73.955556 17.066667 17.066667 54.044444 17.066667 62.577778-8.533333 17.066667 8.533333 36.977778 11.377778 36.977777 31.288889 0 62.577778 2.844444 133.688889 59.733334 133.688888 2.844444 0 31.288889 11.377778 48.355555 48.355556 5.688889 14.222222 25.6 0 48.355556 0 11.377778 0 0 17.066667 0 59.733333 0 39.822222 85.333333 99.555556 85.333333 99.555556 0 25.6 0 48.355556 2.844445 65.422222-19.911111 0-36.977778 2.844444-48.355556 5.688889-173.511111-31.288889-304.355556-182.044444-304.355555-361.244444m731.022222 5.688888c0-19.911111-2.844444-42.666667-8.533334-62.577777v-19.911111c5.688889 25.6 8.533333 51.2 8.533334 76.8v5.688888m59.733333-5.688888c0-236.088889-190.577778-426.666667-426.666667-426.666667s-426.666667 190.577778-426.666666 426.666667c0 216.177778 162.133333 398.222222 372.622222 423.822222 11.377778 2.844444 25.6 2.844444 42.666667 2.844444h14.222222c236.088889-2.844444 423.822222-193.422222 423.822222-426.666666" p-id="2268" fill="#ffffff"></path></svg>