<?xml version="1.0" standalone="no"?><!DOCTYPE svg PUBLIC "-//W3C//DTD SVG 1.1//EN" "http://www.w3.org/Graphics/SVG/1.1/DTD/svg11.dtd"><svg t="1586350047984" class="icon" viewBox="0 0 1024 1024" version="1.1" xmlns="http://www.w3.org/2000/svg" p-id="2652" xmlns:xlink="http://www.w3.org/1999/xlink" width="200" height="200"><defs><style type="text/css"></style></defs><path d="M990.9 365.7l-439-351.3C540.7 5.6 526 1.1 511.2 1.1c-14.7 0-29.5 4.5-40.6 13.4l-439 351.2C9.2 383.6-1.7 420.5 7.4 447.6l175.2 525.7c9.1 27.1 39.9 49.3 68.5 49.3h520.3c28.6 0 59.4-22.2 68.5-49.4l175.2-525.7c9.1-27.1-1.8-63.9-24.2-81.8z m-25.2 65.5L851.6 773.6l-50.2-86 55.9-198.4c7.8-27.5-3.8-65.4-25.8-83.8L551.3 171.6c-11-9.2-25.5-13.9-40-13.9s-29 4.6-40 13.7L191 405c-22 18.3-33.6 55.8-25.8 83.4L257 814.9c7.8 27.5 37.6 51.7 66.2 51.7h376.2c28.6 0 58.4-24.1 66.2-51.7l7.3-26 68 17-50.3 151c-1.9 5.9-12.9 13.7-19.1 13.7H251.1c-6.2 0-17.2-7.9-19.2-13.8L56.8 431.1c-2.1-6.4 2-20.6 7.3-24.8L503.1 55c1-0.8 4-2 8.1-2s7.1 1.2 8.1 2l439 351.3c5.4 4.3 9.6 18.5 7.4 24.9zM215.2 475c-2.2-7.7 2.9-24.6 9.1-29.7l270.5-225.6-233.2 419.8L215.2 475z m507.1 301.2l-6.9 24.4c-1.5 5.1-10.8 13.8-16.1 13.8H323.2c-5.3 0-14.7-8.7-16.1-13.8l-38.9-138 454.1 113.6zM529 220.6l269.2 224.3c6.1 5.1 11.2 21.5 9.1 29.2l-42.4 150.7L529 220.6z m0 0" p-id="2653" fill="#ffffff"></path></svg>