<?xml version="1.0" standalone="no"?><!DOCTYPE svg PUBLIC "-//W3C//DTD SVG 1.1//EN" "http://www.w3.org/Graphics/SVG/1.1/DTD/svg11.dtd"><svg t="1586349943518" class="icon" viewBox="0 0 1024 1024" version="1.1" xmlns="http://www.w3.org/2000/svg" p-id="699" xmlns:xlink="http://www.w3.org/1999/xlink" width="200" height="200"><defs><style type="text/css"></style></defs><path d="M167.7 509.9c0-189.6 153.7-343.3 343.3-343.3 67.3-0.1 133.2 19.7 189.3 56.9l49.4-49.4C680 124.4 596.5 97.8 511 97.9c-227.5 0-412 184.4-412 412 0 113.8 46.1 216.8 120.7 291.3 13.4 13.4 35.1 13.4 48.6 0 13.4-13.4 13.4-35.1 0-48.6-62.2-62.1-100.6-147.9-100.6-242.7z m679.1-238.7l-49.4 49.4c37.2 56.1 57 122 56.9 189.3 0 94.8-38.4 180.6-100.6 242.8-13.4 13.4-13.4 35.1 0 48.6 13.4 13.4 35.1 13.4 48.6 0C876.8 726.8 923 623.8 923 510c0.1-85.7-26.5-169.2-76.2-238.8z m0 0" p-id="700" fill="#ffffff"></path><path d="M462.4 558.4c12.9 12.9 30.3 20.1 48.6 20.1 18.2 0 35.7-7.2 48.6-20.1C586.3 531.6 850.8 170 850.8 170S489.2 434.5 462.4 461.3c-12.9 12.9-20.1 30.3-20.1 48.6 0 18.2 7.2 35.7 20.1 48.5z m-15.6 123.1H365v240.3h51.5v-103h29.7c22.7 0 39.6-5.4 50.7-17 11-11.6 16.6-29 16.6-52.7 0-24.1-5.2-41.3-15.6-51.9-10.4-10.5-27.4-15.7-51.1-15.7z m13.6 95.8c-5.6 5.4-15.4 7.2-29.3 7.2h-14.6v-68.7h15.2c14.4 0 24.2 2.1 29.3 7.3 5.1 5.1 7.7 13.7 7.7 26.9 0.1 13.2-2.7 21.9-8.3 27.3z m187.9 118V793.7c0-21.2-2.7-36-11.5-44.4-8.8-8.5-23.3-12.7-45.2-12.7-21.9 0-37.4 3.8-47.3 13.1-9.9 9.2-14.4 26.3-14.4 43.4H571v-2c0-8.6 1.5-14.9 5-19 3.6-4 9-6.1 16.6-6.1 6 0 10.5 1.5 13.7 4.6 3.2 3.1 4.7 7.4 4.7 13.1 0 9.3-8.2 17.5-24.5 24.4-3.6 1.6-6.4 2.8-8.4 3.7-19.8 8.8-33.1 17.6-39.8 26.4-6.7 8.8-10 20.6-10 35.4 0 16.4 3.8 29.2 11.4 38.4 7.6 9.2 18.3 13.9 32 13.9 9.2 0 17.3-1.9 24.2-5.7 6.9-3.8 12.5-9.3 16.9-16.6 0.7 4.9 1.4 9 2.1 11.7 0.7 2.7 1.5 6.4 2.4 6.4h40.5c-2.2-8.6-5.5-8.5-6.4-12.5-0.9-4-3.1-8.9-3.1-13.9zM614 855.5c0 12.7-3 22.2-6.6 28.5-3.6 6.3-9.7 9.5-16.9 9.5-6.3 0-11.3-1.9-14.2-5.7-3-3.8-4.6-9.7-4.6-17.7 0-8.5 3.9-15.9 9.4-22.1 5.6-6.2 15.7-13.3 32.9-21.2v28.7z m0 0" p-id="701" fill="#ffffff"></path></svg>