<?xml version="1.0" standalone="no"?><!DOCTYPE svg PUBLIC "-//W3C//DTD SVG 1.1//EN" "http://www.w3.org/Graphics/SVG/1.1/DTD/svg11.dtd"><svg t="1586350193345" class="icon" viewBox="0 0 1049 1024" version="1.1" xmlns="http://www.w3.org/2000/svg" p-id="9367" xmlns:xlink="http://www.w3.org/1999/xlink" width="204.8828125" height="200"><defs><style type="text/css"></style></defs><path d="M922.7456 354.9504c-5.24032-5.24416-10.48576-10.4896-15.72608-10.4896-31.45984-20.97024-52.4288-20.97024-78.64448-20.97024h-31.45472l-5.24544-10.48448c-5.24544-36.70016-20.97024-89.13024-62.91456-115.34464l-20.97024-15.7248 20.97024-15.7312c15.72992-10.48448 36.70016-15.72992 52.4288-15.72992 57.6704 0 94.37056 41.9456 94.37056 89.13024h10.48576c15.72992 0 31.45984 5.24544 41.94432 20.97024 15.72992 15.72992 20.97024 36.70016 20.97024 57.67552 0 10.48448 0 20.96896-10.48448 31.45472l-10.48576 20.97024-5.24416-15.72608z m0 0" p-id="9368" fill="#ffffff"></path><path d="M246.41536 884.48128c-136.31488 0-246.41536-110.10048-246.41536-246.41536 0-110.10048 78.64448-209.7152 183.49952-241.17504 15.72992-146.79936 141.56032-256.89984 288.36096-256.89984 141.55392 0 262.144 99.61472 288.35968 235.9296h52.42496c131.07456 10.48576 230.68928 120.58496 235.9296 246.41536 5.24544 141.56032-104.85504 256.89984-246.41408 262.14528H246.41536z m225.44512-665.84576c-115.34592 0-214.96064 94.37056-214.96064 214.95552 0 20.97536-15.72992 36.70016-31.45472 36.70016-83.8848 10.48448-146.80064 83.88992-146.80064 167.77472 0 94.37056 78.64064 167.7696 173.01504 167.7696h550.50112c94.36928-5.23904 173.01376-83.8848 173.01376-183.49952-5.23904-89.13024-73.39904-162.53056-162.52928-173.01504h-47.18464c-15.72992 5.24544-36.70016 0-47.18592-10.48448-15.72992-10.48576-20.96896-26.21568-26.2144-41.9456-20.97024-99.61472-110.10048-178.25536-220.19968-178.25536z m0 0" p-id="9369" fill="#ffffff"></path><path d="M702.54464 748.1664v-31.45984l5.24544-5.24032c36.70016-36.70016 57.6704-57.67552 57.6704-73.40032 0-10.48448-5.24032-10.48448-10.48576-10.48448-5.24416 0-10.48448 5.23904-15.7312 10.48448l-5.23904 5.24032h-5.24416l-31.45472-26.21568 5.23904-5.23904c20.97024-20.97024 31.45984-26.21568 52.43008-26.21568 31.45472 0 52.4288 20.97024 52.4288 52.43008 0 20.97024-10.4832 41.94048-31.45856 62.91456h36.70016v41.94048h-110.10048v5.24544z" p-id="9370" fill="#ffffff"></path><path d="M432.63232 733.24288h-47.34336L293.4016 579.57376c-4.7616-7.9744-8.2176-14.41664-10.36544-19.32416h-0.70016c0.84096 8.18048 1.2608 20.80768 1.2608 37.8816v135.11168H239.7568V495.68384h50.42432l88.5248 149.376c5.8816 9.91872 9.47584 16.2048 10.784 18.86336h0.70144c-0.9344-5.72544-1.40032-16.66432-1.40032-32.8192V495.68256h43.84v237.55904zM469.46944 617.6064c0-37.21344 9.92-67.50336 29.76512-90.8672 19.84256-23.36 46.05824-35.04256 78.64832-35.04256 31.0016 0 55.95648 11.29728 74.8672 33.89312C671.65824 548.1856 681.1136 577.2224 681.1136 612.6976c0 37.01376-9.82912 67.0464-29.4848 90.10176-19.65824 23.05792-45.40672 34.58432-77.248 34.58432-31.09504 0-56.35584-11.17056-75.776-33.5104-19.424-22.33856-29.13536-51.09376-29.13536-86.26816z m48.60416-2.75968c0 23.10784 5.088 41.9968 15.26784 56.66816 10.176 14.67264 24.13696 22.00704 41.87904 22.00704 18.11584 0 32.2176-7.02848 42.30144-21.088 10.0864-14.05568 15.12832-32.94592 15.12832-56.66688 0-24.7424-4.9024-44.29568-14.7072-58.6624-9.8048-14.3616-23.62624-21.54624-41.46048-21.54624-18.11712 0-32.38016 7.36-42.7904 22.08384-10.41408 14.72384-15.61856 33.792-15.61856 57.20448z" p-id="9371" fill="#ffffff"></path></svg>