<?xml version="1.0" standalone="no"?><!DOCTYPE svg PUBLIC "-//W3C//DTD SVG 1.1//EN" "http://www.w3.org/Graphics/SVG/1.1/DTD/svg11.dtd"><svg t="1586350220311" class="icon" viewBox="0 0 1439 1024" version="1.1" xmlns="http://www.w3.org/2000/svg" p-id="10836" xmlns:xlink="http://www.w3.org/1999/xlink" width="281.0546875" height="200"><defs><style type="text/css"></style></defs><path d="M611.572703 774.131983q63.521582 0 104.284865-45.784101t40.763282-137.311149q0-90.539346-39.652118-135.00651t-105.396029-44.549474q-65.702757 0-105.88988 45.043325t-40.248855 135.911904q0 89.448758 41.298288 135.541516t104.840447 46.154489z" p-id="10837" fill="#ffffff"></path><path d="M358.041958 1021.942288h679.456635c226.512981 0 400.348525-184.371031 400.348525-410.884013 5.267744-210.70975-184.371031-400.266217-410.884012-405.616269C963.750181 84.2839 832.056587 0 679.292018 0c-216.059802 0-410.884013 163.300056-421.4195 358.206575C109.264529 399.196206 5.535246 524.943011 0 672.398682v24.486777C6.522948 875.433165 157.024033 1011.633148 358.041958 1021.942288zM912.081022 774.605257l56.978057-6.87276c1.831364 14.52745 6.687565 25.618519 14.650912 33.27321a40.187123 40.187123 0 0 0 28.807974 11.523189 39.713849 39.713849 0 0 0 30.742223-13.95129q12.531469-13.786673 12.510891-37.265171c0-14.753798-3.971385-26.523913-11.955309-35.166305a38.005948 38.005948 0 0 0-29.096053-12.984166 102.206575 102.206575 0 0 0-27.017764 4.403505l6.481794-47.903545c15.947271 0.43212 28.067197-3.065991 36.400933-10.412024a37.038823 37.038823 0 0 0 12.675508-29.260671 31.668194 31.668194 0 0 0-33.705329-33.869946 35.536693 35.536693 0 0 0-25.741982 10.412025c-7.119685 6.996222-11.461458 17.161321-12.984165 30.639337l-54.241299-9.259705q5.617555-27.840849 17.037858-44.487743a76.711518 76.711518 0 0 1 31.873965-26.215256 107.165662 107.165662 0 0 1 45.763524-9.506631q43.21196 0 69.488948 27.573346 21.60598 22.634836 21.564826 51.175308 0 40.434049-44.117354 64.529861a71.279158 71.279158 0 0 1 42.162527 25.309862 73.398601 73.398601 0 0 1 15.803232 47.553734 92.123784 92.123784 0 0 1-29.69279 68.933365q-29.507596 28.499317-73.522065 28.417009-41.668676 0-69.139136-23.890041A94.222651 94.222651 0 0 1 912.019291 774.605257zM380.018327 461.051041a246.637409 246.637409 0 0 1 49.014709-72.163974 204.948155 204.948155 0 0 1 68.007395-47.327385q49.179326-20.82405 113.441685-20.82405 116.343059 0 186.202395 72.019934T866.543847 593.526565q0 127.578169-69.365485 199.454064t-185.194116 72.019934q-117.289607 0-186.716824-71.567238T355.984246 596.057552q0-80.435978 24.034081-135.006511z" p-id="10838" fill="#ffffff"></path></svg>