<?xml version="1.0" standalone="no"?><!DOCTYPE svg PUBLIC "-//W3C//DTD SVG 1.1//EN" "http://www.w3.org/Graphics/SVG/1.1/DTD/svg11.dtd"><svg t="1586350113870" class="icon" viewBox="0 0 1024 1024" version="1.1" xmlns="http://www.w3.org/2000/svg" p-id="6239" xmlns:xlink="http://www.w3.org/1999/xlink" width="200" height="200"><defs><style type="text/css"></style></defs><path d="M118.528 387.533c0 48.896 39.834 89.651 87.603 89.651s87.655-40.96 87.655-89.651c7.987-57.037-39.834-89.6-87.655-89.6s-87.603 40.704-87.603 89.6zM951.603 179.2c-31.897 0-55.808 24.474-55.808 48.896 7.987 24.422 31.898 48.896 55.808 48.896 31.847 0 55.757-24.474 55.757-48.896S983.45 179.2 951.603 179.2z m-243.2 40.346c47.821 0 87.655-40.96 87.655-89.6s-39.834-89.6-87.655-89.6-87.654 40.96-87.654 89.6c-7.936 48.742 31.897 89.446 87.654 89.446z m-365.107 24.32c39.885 0 79.667-32.615 79.667-73.319S391.117 97.28 343.296 97.28c-39.834 0-79.667 32.563-79.667 73.318s31.897 73.268 79.667 73.268z m394.906 210.33c0 40.96 31.897 73.318 79.667 73.318 39.833 0 79.667-32.615 79.667-73.319s-31.846-73.318-79.667-73.318c-39.629 0-79.667 32.563-79.667 73.318z m-197.786-6.657c39.834 0 63.744-32.819 63.744-65.177s-31.846-64.922-63.744-64.922c-39.834 0-63.744 32.307-63.744 64.922s31.898 65.177 63.744 65.177z m393.165 139.315c-8.55 0-17.152 0-21.402 4.404-171.52 122.47-325.888 34.97-330.189 30.72C260.403 420.659 46.08 634.88 46.08 634.88a22.784 22.784 0 0 0-8.55 17.51 33.178 33.178 0 0 0 8.55 17.562c8.602 13.158 25.6 8.755 38.605 0 4.3-8.755 180.07-179.2 463.104-4.352 4.3 4.352 72.909 43.725 171.52 43.725 64.307 0 145.766-17.46 227.225-74.343a32.973 32.973 0 0 0 4.301-39.372 22.17 22.17 0 0 0-17.254-8.756zM88.013 178.688a64.41 64.41 0 0 0 63.744-65.126 64.512 64.512 0 0 0-63.693-65.28 64.46 64.46 0 0 0-63.744 65.177 64.41 64.41 0 0 0 63.693 65.229z m126.054 589.568h-72.294v209.92h49.613v-69.53h24.064c43.468 0 81.408-22.016 81.408-72.038 0.102-51.968-37.376-68.352-82.79-68.352z m-1.075 100.557h-21.606V808.09h20.224c23.808 0 37.068 7.372 37.068 28.518s-11.622 32.205-35.686 32.205z m229.274-9.882c-3.892 12.135-7.22 25.6-11.367 38.4h-1.382c-3.891-12.953-7.22-26.265-11.367-38.4l-32.665-90.675h-53.453v209.92h44.288V906.24a706.253 706.253 0 0 0-6.349-72.858h1.127l16.588 50.279 27.956 76.8h27.136l27.699-76.8 17.152-50.279h1.126a706.253 706.253 0 0 0-6.349 72.858v72.192h44.954v-209.92h-53.555zM665.6 768.256h-36.3a136.858 136.858 0 0 1-51.2 18.944v31.078h37.938v119.45h-43.724v40.704h130.099v-40.704H665.6z m138.24-3.942c-43.418 0-72.806 35.584-72.806 107.878s29.388 110.182 72.806 110.182 73.114-37.836 73.114-110.182-29.594-107.878-73.114-107.878z m0 179.2c-14.643 0-26.266-13.568-26.266-71.22s11.623-69.17 26.266-69.17 26.624 11.878 26.624 69.17-11.93 71.117-26.624 71.117z" p-id="6240" fill="#ffffff"></path></svg>