<?xml version="1.0" standalone="no"?><!DOCTYPE svg PUBLIC "-//W3C//DTD SVG 1.1//EN" "http://www.w3.org/Graphics/SVG/1.1/DTD/svg11.dtd"><svg t="1586350104355" class="icon" viewBox="0 0 1024 1024" version="1.1" xmlns="http://www.w3.org/2000/svg" p-id="5401" xmlns:xlink="http://www.w3.org/1999/xlink" width="200" height="200"><defs><style type="text/css"></style></defs><path d="M118.528 389.12c0 48.896 39.834 89.6 87.603 89.6s87.655-40.909 87.655-89.6c7.987-57.037-39.834-89.6-87.655-89.6s-87.603 40.5-87.603 89.6z m833.024-208.486C919.706 180.429 896 204.8 896 229.324c7.987 24.423 31.846 48.846 55.757 48.846 31.897 0 55.808-24.423 55.808-48.845s-24.115-48.896-56.013-48.896z m-243.149 40.345c47.821 0 87.655-40.96 87.655-89.6s-39.834-89.6-87.655-89.6-87.603 40.96-87.603 89.6c-7.987 48.64 31.846 89.395 87.603 89.395z m-365.056 24.423c39.834 0 79.667-32.564 79.667-73.319S391.117 98.56 343.347 98.56c-39.833 0-79.667 32.614-79.667 73.318s31.846 73.319 79.667 73.319zM738.202 455.68c0 40.96 31.897 73.318 79.667 73.318 39.833 0 79.667-32.614 79.667-73.318s-31.846-73.318-79.667-73.318c-39.629-0.103-79.667 32.358-79.667 73.318z m-197.786-6.707c39.834 0 63.744-32.563 63.744-65.178s-31.846-65.126-63.744-65.126c-39.834 0-63.744 32.563-63.744 65.126s31.898 65.075 63.744 65.075z m393.165 139.366c-8.55 0-17.152 0-21.402 4.352-171.52 122.47-325.939 35.021-330.189 30.72-321.587-201.42-535.91 12.903-535.91 12.903a22.886 22.886 0 0 0-8.55 17.51 33.126 33.126 0 0 0 8.55 17.51c8.602 13.108 25.6 8.756 38.605 0 4.3-8.755 180.07-179.2 463.104-4.352 4.3 4.352 72.909 43.725 171.52 43.725 64.307 0 145.766-17.51 227.277-74.393a32.973 32.973 0 0 0 4.25-39.322 21.965 21.965 0 0 0-17.255-8.755zM88.013 180.07a64.46 64.46 0 0 0 63.744-65.126 64.46 64.46 0 0 0-63.693-65.28 64.512 64.512 0 0 0-63.744 65.178 64.41 64.41 0 0 0 63.693 65.228z m60.006 589.568H75.776v209.92h49.562v-69.53h24.064c43.468 0 81.408-22.066 81.408-72.038 0-51.968-37.376-68.352-82.79-68.352zM146.893 870.4h-21.555v-60.928h20.224c23.808 0 37.068 7.322 37.068 28.518s-11.622 32.41-35.737 32.41z m229.325-10.24c-3.892 12.134-7.22 25.6-11.367 38.4h-1.331c-3.84-13.005-7.168-26.266-11.315-38.4l-32.666-90.675H266.24v209.92h44.032v-71.629a707.277 707.277 0 0 0-6.349-72.909h1.127l16.588 50.279 27.956 76.8h27.136l27.699-76.8 17.152-50.279h1.126a707.277 707.277 0 0 0-6.349 72.909v71.987h45.108v-209.92h-53.71z m192.102 80.077c31.59-32.461 62.003-72.295 62.003-108.442 0-40.14-27.648-66.099-67.533-66.099-29.337 0-48.179 10.7-68.403 32.46l26.88 27.137c9.677-10.752 20.48-20.48 34.867-20.48 16.333 0 26.88 10.24 26.88 29.696 0 30.72-34.61 68.608-86.118 116.377v28.775h142.9v-42.343h-37.991a282.163 282.163 0 0 0-33.485 2.919z m134.298-18.944a31.283 31.283 0 1 0 29.337 31.078 29.645 29.645 0 0 0-29.593-31.078z m137.625-78.49a50.79 50.79 0 0 0-21.299 4.25l3.02-35.84h73.37v-41.78H779.622l-5.12 103.937 21.556 14.387c12.236-7.885 17.766-10.24 29.081-10.24 17.767 0 30.208 11.315 30.208 32.46s-12.441 32.769-32.41 32.769c-16.332 0-30.72-8.756-42.342-20.02l-22.835 31.898a97.28 97.28 0 0 0 71.987 29.133c39.578 0 74.496-27.392 74.496-74.599 0-45.465-29.389-66.355-64.256-66.355z" p-id="5402" fill="#ffffff"></path></svg>