<?xml version="1.0" standalone="no"?><!DOCTYPE svg PUBLIC "-//W3C//DTD SVG 1.1//EN" "http://www.w3.org/Graphics/SVG/1.1/DTD/svg11.dtd"><svg t="1586350148265" class="icon" viewBox="0 0 1382 1024" version="1.1" xmlns="http://www.w3.org/2000/svg" p-id="7685" xmlns:xlink="http://www.w3.org/1999/xlink" width="269.921875" height="200"><defs><style type="text/css"></style></defs><path d="M1086.182533 332.12788c133.875335-8.412931 152.164315-19.020539 231.355599 56.330059C1443.000536 329.201643 1367.649937 116.135024 1226.093231 160.943026c6.766923-99.492052-182.158243-275.066262-320.605823-49.380247 4.389355 1.646008 179.232006 62.182533 180.695125 220.565101z m0 0M905.121629 111.562779v0.731559c0.18289-0.18289 0.36578-0.36578 0.365779-0.548669l-0.365779-0.18289z m-117.963922 471.672799c-34.200393 0-61.633863 12.253617-82.117521 35.663511-19.752099 23.592784-30.359707 56.330059-30.359707 97.480264h0.731559c0 40.235756 9.876049 71.509912 30.359707 94.371138 20.483658 22.861225 47.185569 34.931952 81.385962 34.931952 34.931952 0 62.365422-11.339168 80.654402-33.468833 18.28898-22.861225 27.43347-54.866941 27.433471-97.480265m-108.087873-131.497767" p-id="7686" fill="#ffffff"></path><path d="M1155.497767 417.354528l-151.432755-5.303805C948.466512 0.548669 376.204322-70.229684 254.582604 480.634399l-59.256296 3.109127c-312.010002 151.249866-189.656724 488.315771-48.831577 537.878907v0.731559h1015.769959c241.231649-63.279871 293.721022-475.513485-6.766923-604.999464z m8.961601 448.262904v22.861225h-122.536167v-22.129666l58.524736-58.524737c15.911413-15.911413 27.43347-28.896589 32.737275-38.772638 5.303804-9.14449 8.412931-19.020539 8.412931-29.628148 0-11.339168-3.109127-20.483658-9.87605-26.701911-6.035363-6.035363-15.911413-9.14449-28.165029-9.14449-18.28898 0-34.931952 7.681372-51.757814 22.861226V700.467941c15.911413-12.253617 34.200393-18.28898 55.5985-18.28898 18.28898 0 32.737275 4.572245 43.344883 14.448294 10.607609 9.876049 15.911413 22.861225 15.911412 39.504197 0 12.985176-3.109127 25.055903-9.876049 37.30952-6.766923 12.070727-19.752099 27.43347-38.772638 46.454009L1071.734238 864.885872v0.73156h92.72513z m0 0" p-id="7687" fill="#ffffff"></path><path d="M334.871227 596.586533c0 11.156278 2.377567 20.483658 6.949812 27.79925s10.790498 13.350956 18.47187 18.106091c7.681372 4.755135 16.642972 8.595821 26.884801 11.704947 10.241829 3.109127 20.849437 5.852474 31.822826 8.595821 14.814074 3.657796 29.445258 7.498482 43.893552 11.887837 14.448294 4.389355 27.25058 10.424719 38.406859 18.10609s20.300768 17.740311 27.25058 29.993928c6.949812 12.253617 10.424719 28.165029 10.424719 47.551348 0 19.752099-3.840686 36.76085-11.339168 51.026255-7.498482 14.265405-17.923201 25.970352-31.274156 35.297731-13.350956 9.14449-29.079478 16.094303-47.185569 20.483658-18.10609 4.389355-38.041079 6.766923-59.622075 6.766923-9.876049 0-20.117878-0.548669-30.542597-1.828898-10.424719-1.280229-20.300768-2.926237-29.811038-4.938025-9.51027-2.011788-18.10609-4.389355-25.604572-7.132702-7.681372-2.743347-13.716735-5.303804-18.10609-8.047151v-42.430434c6.949812 3.474906 14.631184 6.584033 23.227004 9.32738 8.595821 2.926237 17.557421 5.303804 26.701911 7.315592s18.47187 3.474906 27.79925 4.755134c9.32738 1.097339 18.10609 1.646008 26.336132 1.646009 13.350956 0 26.153242-1.097339 38.223968-3.474907 12.070727-2.194678 22.861225-6.035363 32.005716-11.339167 9.14449-5.303804 16.460082-12.619396 21.763886-21.763887 5.303804-9.14449 8.047151-20.666548 8.047151-34.566172 0-11.339168-2.377567-20.666548-6.949812-28.16503-4.755135-7.315592-10.973388-13.533845-18.83765-18.28898-7.864261-4.755135-16.825862-8.77871-27.06769-11.704947-10.241829-3.109127-21.032327-5.852474-32.371495-8.595821-14.996964-3.474906-29.445258-7.315592-43.710663-11.522057-14.265405-4.206465-26.884801-10.241829-38.223969-17.740311-11.156278-7.498482-20.117878-17.374531-26.8848-29.262368-6.766923-11.887837-10.241829-27.25058-10.241829-45.722451 0-19.386319 3.474906-36.029291 10.790498-49.928916 7.132702-13.899625 16.825862-25.421682 28.896589-34.566172 12.253617-9.14449 26.153242-15.728523 42.064654-20.117878 15.911413-4.389355 32.737275-6.584033 50.843365-6.584033 20.483658 0 39.504197 2.011788 57.244508 5.852473s33.834613 8.9616 48.648687 15.179854v42.979103c-15.911413-6.584033-32.371495-12.070727-49.197356-16.277192-17.008752-4.206465-35.114842-6.401143-54.318272-6.584033-14.448294 0-27.25058 1.646008-37.858189 4.755135-10.790498 3.109127-19.569209 7.498482-26.701911 13.350955-7.132702 5.852474-12.253617 12.802286-15.728523 21.032328-3.474906 7.864261-5.120914 17.008752-5.120914 27.06769zM964.926594 686.385426c0 28.896589-4.206465 55.23272-12.436506 79.374174-8.412931 24.141454-20.300768 44.808001-35.846402 62.182533-15.545633 17.374531-34.383283 31.091266-56.147169 40.784425-21.946776 9.693159-46.45401 14.631184-73.5217 14.631184-28.165029 0-53.220932-4.938025-75.350598-14.631184-22.129666-9.693159-40.967316-23.409895-56.330059-40.784425-15.362743-17.374531-27.067691-38.223969-35.297732-62.182533-8.230041-24.141454-12.253617-50.477585-12.253617-79.374174 0-29.079478 4.206465-55.5985 12.619397-79.739954 8.412931-24.141454 20.483658-44.990891 35.846401-62.365422 15.545633-17.374531 34.200393-31.091266 56.147169-40.784426 21.946776-9.693159 46.636899-14.631184 74.07037-14.631184 27.98214 0 52.855153 4.938025 74.984818 14.631184 22.129666 9.693159 40.784426 23.409895 56.147169 40.784426 15.362743 17.374531 27.067691 38.223969 35.297732 62.365422 8.047151 24.141454 12.070727 50.660475 12.070727 79.739954z m-46.45401 0c0-25.604572-3.474906-48.100018-10.241829-67.669227-6.766923-19.569209-16.094303-35.846401-27.982139-48.831577-11.887837-12.985176-25.970352-23.044115-42.064655-29.628148-16.094303-6.766923-33.468834-10.058939-52.123593-10.058939s-35.846401 3.292016-52.123594 10.058939c-16.094303 6.766923-30.176817 16.642972-42.064654 29.628148s-21.215217 29.445258-27.98214 48.831577c-6.766923 19.569209-10.241829 42.064654-10.241829 67.669227s3.474906 48.100018 10.241829 67.486337c6.949812 19.386319 16.277192 35.663511 28.16503 48.831577 11.887837 12.985176 25.970352 22.861225 42.064654 29.628148 16.094303 6.584033 33.651724 9.876049 52.306484 9.876049 18.65476 0 35.846401-3.292016 51.757813-9.876049 15.911413-6.584033 29.811038-16.460082 41.698875-29.628148 11.887837-12.985176 21.215217-29.262368 27.98214-48.831577 7.132702-19.386319 10.607609-41.881765 10.607608-67.486337z" fill="#ffffff" p-id="7688"></path></svg>