<?xml version="1.0" standalone="no"?><!DOCTYPE svg PUBLIC "-//W3C//DTD SVG 1.1//EN" "http://www.w3.org/Graphics/SVG/1.1/DTD/svg11.dtd"><svg t="1583736103756" class="icon" viewBox="0 0 1024 1024" version="1.1" xmlns="http://www.w3.org/2000/svg" p-id="6530" xmlns:xlink="http://www.w3.org/1999/xlink" width="200" height="200"><defs><style type="text/css"></style></defs><path d="M637.155 647.481v-517.465c0-69.886-56.854-126.742-126.74-126.742s-126.741 56.855-126.741 126.742v517.467c-50.332 39.084-80.005 99.206-80.005 163.39 0 114 92.746 206.747 206.748 206.747 114.027 0 206.796-92.746 206.796-206.747-0.001-64.174-29.695-124.3-80.057-163.391zM510.415 967.942c-86.61 0-157.071-70.462-157.071-157.069 0-52.194 25.833-100.86 69.102-130.18 6.619-4.529 10.905-12.046 10.905-20.561 0 0 0 0 0-0.001v-530.114c0-42.494 34.571-77.066 77.063-77.066s77.063 34.571 77.063 77.066v530.115c0 8.241 4.085 15.942 10.907 20.564 43.296 29.333 69.147 77.998 69.147 130.179 0.001 86.607-70.482 157.068-157.117 157.068z" p-id="6531" fill="#ffffff"></path><path d="M555.194 727.534v-401.39c0-24.69-20.087-44.778-44.779-44.778s-44.78 20.085-44.78 44.778v401.388c-30.41 16.325-49.523 47.77-49.523 82.866 0 51.988 42.304 94.284 94.303 94.284 51.998 0 94.301-42.294 94.301-94.284 0-35.093-19.107-66.535-49.523-82.864z" p-id="6532" fill="#ffffff"></path></svg>