<?xml version="1.0" standalone="no"?><!DOCTYPE svg PUBLIC "-//W3C//DTD SVG 1.1//EN" "http://www.w3.org/Graphics/SVG/1.1/DTD/svg11.dtd"><svg t="1583736032312" class="icon" viewBox="0 0 1024 1024" version="1.1" xmlns="http://www.w3.org/2000/svg" p-id="4164" xmlns:xlink="http://www.w3.org/1999/xlink" width="200" height="200"><defs><style type="text/css"></style></defs><path d="M862.016 384c-52.992 0-96 43.008-96 96 0 11.296 2.336 21.92 5.888 32H158.016a32 32 0 0 0 0 64h704a96.032 96.032 0 0 0 0-192z m-704 64h384a96.032 96.032 0 0 0 0-192c-52.992 0-96 43.008-96 96 0 11.296 2.336 21.92 5.888 32H158.016a32 32 0 0 0 0 64z m512 192c-1.888 0-3.68 0.416-5.568 0.576-1.248-0.096-2.304-0.576-3.552-0.576H167.2c-22.752 0-41.184 14.336-41.184 32s18.432 32 41.184 32h412.704a95.872 95.872 0 0 0-5.888 32 96.032 96.032 0 0 0 192 0c0-52.992-43.008-96-96-96z" p-id="4165" fill="#ffffff"></path></svg>